<svg xmlns="http://www.w3.org/2000/svg" width="40" height="19">
    <path fill-rule="evenodd" fill="#666" d="M32.033 9.27c.258.227.514.476.769.757l7.067 8.226h-5.841l-4.157-4.857c-1.068-1.236-1.717-1.766-2.882-1.766-1.166 0-1.815.53-2.884 1.766l-3.717 4.331c-.325.392-.666.529-1.291.529h-8.094c-5 0-10.872-2.114-10.872-10.322V.963h4.922v6.971c0 3.686 2.364 5.976 6.171 5.976h6.611l3.341-3.883c.245-.271.492-.514.741-.735a9.946 9.946 0 0 1-.536-.559L14.835.743l5.598.001 3.763 4.602c1.025 1.243 1.648 1.775 2.768 1.775 1.12 0 1.742-.532 2.769-1.775L33.494.744h5.599l-6.545 7.989c-.171.196-.343.366-.515.537z"/>
</svg>
