<svg xmlns="http://www.w3.org/2000/svg" width="19" height="12">
    <path fill-rule="evenodd" fill="#111" d="M-.001 11.98v-1.5h9.78v1.5h-9.78zm0-4.894v-1.5H4.73v1.5H-.001zm0-4.894v-1.5H4.73v1.5H-.001zM17.946 11.1l-3.87-2.941a4.38 4.38 0 0 1-1.245.633 4.433 4.433 0 0 1-1.37.217c-1.253 0-2.321-.438-3.204-1.313-.883-.876-1.325-1.939-1.325-3.192 0-1.251.442-2.315 1.326-3.191C9.141.437 10.21 0 11.463 0c1.254 0 2.322.437 3.204 1.313.882.876 1.323 1.938 1.323 3.187 0 .464-.073.921-.217 1.37a4.139 4.139 0 0 1-.643 1.236l2.97 3.84-.154.154zm-6.485-3.591c.841 0 1.557-.291 2.146-.875a2.887 2.887 0 0 0 .883-2.13c0-.836-.295-1.546-.883-2.129-.589-.584-1.305-.875-2.146-.875s-1.556.291-2.145.875a2.884 2.884 0 0 0-.884 2.129c0 .837.295 1.547.884 2.13.589.584 1.304.875 2.145.875z"/>
</svg>
