<svg xmlns="http://www.w3.org/2000/svg" width="13" height="12">
    <path fill-rule="evenodd" fill="#009881" d="M11.945 11.1 8.076 8.159a4.4 4.4 0 0 1-1.246.633 4.433 4.433 0 0 1-1.37.217c-1.253 0-2.321-.438-3.204-1.313C1.373 6.82.931 5.756.931 4.504c0-1.251.443-2.315 1.326-3.191C3.14.437 4.209-.001 5.463-.001s2.321.438 3.203 1.314c.882.876 1.323 1.938 1.323 3.186 0 .465-.072.921-.217 1.371a4.122 4.122 0 0 1-.643 1.235l3.87 3.841-1.054.154zM5.46 7.509c.842 0 1.557-.292 2.146-.875a2.883 2.883 0 0 0 .883-2.13c0-.836-.294-1.546-.883-2.129C7.017 1.791 6.302 1.5 5.46 1.5c-.841 0-1.556.291-2.145.875a2.883 2.883 0 0 0-.883 2.129c0 .837.294 1.547.883 2.13a2.936 2.936 0 0 0 2.145.875z"/>
</svg>
