<svg xmlns="http://www.w3.org/2000/svg" width="16" height="18">
    <path fill-rule="evenodd" fill="#777" d="M4.231 10.879a.805.805 0 0 1-.589-.243.804.804 0 0 1-.244-.589c0-.231.082-.427.244-.589a.806.806 0 0 1 .589-.244c.231 0 .428.082.591.244a.802.802 0 0 1 .243.589c0 .23-.081.427-.243.589a.808.808 0 0 1-.591.243zm2.869 0c.669 0 .472-.081.31-.243a.8.8 0 0 1-.244-.589c0-.231.081-.427.244-.589.162-.162.359-.244-.31-.244 1.13 0 1.327.082 1.489.244a.799.799 0 0 1 .244.589.8.8 0 0 1-.244.589c-.162.162-.359.243-1.489.243zm4.667 0a.805.805 0 0 1-.589-.243.804.804 0 0 1-.244-.589c0-.231.082-.427.244-.589a.806.806 0 0 1 .589-.244c.231 0 .428.082.59.244a.802.802 0 0 1 .244.589c0 .23-.082.427-.244.589a.804.804 0 0 1-.59.243zM1.696 17.992c-.476 0-.879-.165-1.209-.494a1.641 1.641 0 0 1-.494-1.207V3.695c0-.475.164-.878.494-1.207.33-.329.733-.494 1.209-.494H3V.003h1.449v1.991h7.137V.003h1.413v1.991h1.304c.476 0 .879.165 1.209.494.329.329.494.732.494 1.207v12.596c0 .475-.165.877-.494 1.207-.33.329-.733.494-1.209.494H1.696zm0-1.412h12.607a.28.28 0 0 0 .2-.09.279.279 0 0 0 .09-.199V7.459H1.406v8.832c0 .072.03.138.09.199.06.06.127.09.2.09zm-.29-10.532h13.187V3.695a.277.277 0 0 0-.09-.199.28.28 0 0 0-.2-.091H1.696a.279.279 0 0 0-.2.091.277.277 0 0 0-.09.199v2.353zm0 0V3.405v2.643z"/>
</svg>
